<?xml version="1.0" encoding="UTF-8"?>
<svg version="1.1" xmlns="http://www.w3.org/2000/svg" width="403" height="318">
<path d="M0 0 C132.99 0 265.98 0 403 0 C403 104.94 403 209.88 403 318 C270.01 318 137.02 318 0 318 C0 213.06 0 108.12 0 0 Z " fill="#030303" transform="translate(0,0)"/>
<path d="M0 0 C4.86468118 2.3422539 7.483962 5.24748378 10 10 C10.061875 11.11117187 10.12375 12.22234375 10.1875 13.3671875 C11.26354096 18.17833219 13.76801554 19.74721265 17.6875 22.3125 C18.70299927 23.01560303 18.70299927 23.01560303 19.73901367 23.73291016 C21.14035458 24.70237897 22.54741214 25.66363468 23.95996094 26.61669922 C26.95226613 28.64570846 29.87911481 30.76220532 32.8125 32.875 C33.95142972 33.68674988 35.09076491 34.49793111 36.23046875 35.30859375 C40.70818326 38.50037562 45.16695722 41.71832479 49.625 44.9375 C50.39561768 45.49356934 51.16623535 46.04963867 51.96020508 46.62255859 C52.68747803 47.1480127 53.41475098 47.6734668 54.1640625 48.21484375 C54.80811035 48.68011475 55.4521582 49.14538574 56.11572266 49.62475586 C58.09037904 51.06596335 60.04735191 52.52914954 62 54 C62.14533755 50.417094 62.23407931 46.83494583 62.3125 43.25 C62.35439453 42.23421875 62.39628906 41.2184375 62.43945312 40.171875 C62.71380965 34.20652535 62.71380965 34.20652535 59.5625 29.43359375 C58.716875 28.96050781 57.87125 28.48742187 57 28 C54.42854468 23.71424113 54.3055094 18.86143422 55 14 C57.19126777 9.61746446 59.41674539 6.83330184 64 5 C69.61066039 4.25191195 74.29910763 4.61098457 79 8 C82.19266117 12.28488737 83.68328209 15.63546453 83.390625 21.0078125 C82.67784276 24.64300193 81.16868811 26.98793318 79 30 C76.859375 31.1953125 76.859375 31.1953125 75 32 C72.75495609 49.21240734 72.75495609 49.21240734 76.40771484 65.56396484 C80.20790545 69.76188595 84.66730405 72.22999879 90 74 C92.05155092 73.59292757 92.05155092 73.59292757 94 73 C95.91788845 73.12877251 97.83457069 73.27622681 99.75 73.4375 C104.50616353 73.4549859 107.12426067 72.89014925 110.75 69.75 C113.90303479 66.11981884 114.3729085 63.69233089 114.1875 58.9375 C114.1153125 57.9165625 114.043125 56.895625 113.96875 55.84375 C114.01057885 52.03732485 115.12807355 50.15420825 117.58203125 47.3359375 C120.8213069 44.28405796 122.97198658 43.11214692 127.4375 42.625 C132.84095105 43.19378432 135.80661413 44.96227316 139.875 48.5 C142.70240923 52.16007667 142.64353085 55.88814311 142.41796875 60.375 C141.81855895 64.13951763 140.6172806 66.24496779 138 69 C134.34449381 71.55035316 131.9911469 72.08487506 127.6875 71.6875 C123.43515105 71.55009417 121.2645907 72.75413138 117.9375 75.375 C115.50969683 77.74420102 114.15194623 79.10801933 113.578125 82.4765625 C113.6512623 84.16394444 113.76882352 85.84996191 113.9296875 87.53125 C114.0433791 91.52308827 112.58756245 94.97499862 110 98 C108.35 98.66 106.7 99.32 105 100 C105 117.82 105 135.64 105 154 C111.27 154 117.54 154 124 154 C124.33 152.35 124.66 150.7 125 149 C127.89976296 145.68247458 131.13586092 144.14140458 135.4375 143.4375 C140.51138227 144.23863931 144.90672237 145.6311368 148.39453125 149.578125 C151.04509014 153.73659902 151.76010424 157.18600649 151 162 C149.12172166 166.32403651 147.00859785 169.29836671 143.125 172 C138.65401722 173.43071449 135.21418746 173.99638435 130.8125 172.015625 C128.68084738 170.7823117 126.80792427 169.67563713 125 168 C124.67 166.68 124.34 165.36 124 164 C117.73 164 111.46 164 105 164 C105.00600304 167.25364831 105.05332389 170.49769667 105.125 173.75 C105.12113281 175.13058594 105.12113281 175.13058594 105.1171875 176.5390625 C105.19303922 179.1559469 105.32946473 181.46761742 106 184 C108.7929709 186.58557538 108.7929709 186.58557538 112 188 C114.91051059 191.4926127 115.48216583 194.46336713 115.28515625 199.01171875 C114.64092933 203.50365711 112.77698214 206.28129152 109.5 209.3125 C105.31846444 212.1350365 101.97028473 212.42121057 97 212 C91.91356199 209.26114877 88.82995973 206.4898792 87 201 C86.23283648 192.8680667 90.16090194 189.03870641 95 183 C85.66491957 189.52671169 76.56166984 196.32201088 67.55004883 203.2890625 C62.17254698 207.42552378 56.69975383 211.31939498 51 215 C52.47159587 219.4147876 55.34534949 221.04193088 59.1015625 223.625 C63.20581474 225.57203071 66.1486508 225.01388431 70.5234375 224.29296875 C74.19224073 223.85896206 76.06890872 224.83657549 79 227 C82.10231382 229.7651058 83.68593318 231.32042524 84.44921875 235.40234375 C84.69668158 241.07692252 83.84969718 244.61562265 80 249 C76.70425546 251.89626035 74.09600845 252.89660298 69.6875 253.3125 C65.26732079 252.93790854 63.37270719 251.83614013 60 249 C58.04779929 246.62947056 57.05301584 244.90126933 56.87109375 241.80859375 C56.51985025 237.03317683 55.55912433 234.22646712 51.9375 231.05859375 C50.70411755 230.10060927 49.45346387 229.1644955 48.1875 228.25 C47.57028076 227.79536377 46.95306152 227.34072754 46.31713867 226.87231445 C43.63379165 225.07283476 41.83546423 223.87012816 38.5625 224.37890625 C34.09787634 227.20332518 29.81562448 230.23533694 25.53930664 233.33544922 C21.42959241 236.30492919 17.29310201 239.022871 12.9375 241.625 C9.69901516 243.83831295 9.69901516 243.83831295 8.5078125 247.43359375 C8.52852705 250.05803707 8.52852705 250.05803707 8.81640625 252.640625 C9.09836439 256.26408711 8.14647859 258.1156694 6 261 C2.36059616 264.15415 -1.24827798 266.29105098 -6.125 266.5625 C-11.24645049 265.81906364 -14.17329246 263.97714227 -17.66015625 260.203125 C-19.33914602 257.44233715 -19.13361669 255.70540905 -19.125 252.5 C-19.77796285 248.11506249 -20.85370039 245.78909201 -24.23828125 243.0390625 C-27.88826153 240.39853819 -31.69844371 238.00761302 -35.51220703 235.61230469 C-39.77366704 232.85051059 -43.81109682 229.79173427 -47.875 226.75 C-49.46551596 225.5720657 -51.05664305 224.39495605 -52.6484375 223.21875 C-53.3919043 222.66832031 -54.13537109 222.11789063 -54.90136719 221.55078125 C-62.8585489 215.64484997 -62.8585489 215.64484997 -71 210 C-70.96695791 212.91971883 -70.89977677 215.8318228 -70.8125 218.75 C-70.80669922 219.575 -70.80089844 220.4 -70.79492188 221.25 C-70.66099907 226.40941955 -70.66099907 226.40941955 -67.56640625 230.41015625 C-66.71949219 230.93480469 -65.87257813 231.45945312 -65 232 C-61.99979643 236.30029178 -61.52370683 239.68972739 -62.28515625 244.74609375 C-63.50911684 248.60524817 -65.91894522 251.42479003 -69 254 C-73.38331321 255.4611044 -77.42847447 255.73421471 -82 255 C-85.79881388 252.93422165 -88.25587229 250.26178177 -90.4375 246.5625 C-91.52322963 241.61639834 -91.6906802 238.28269181 -89.25 233.75 C-87 231 -87 231 -84.89746094 229.71557617 C-82.72606119 228.09760164 -82.72606119 228.09760164 -82.45410156 225.1809082 C-82.4331543 224.06546631 -82.41220703 222.95002441 -82.390625 221.80078125 C-82.35839844 220.59228516 -82.32617188 219.38378906 -82.29296875 218.13867188 C-82.27878906 216.87603516 -82.26460938 215.61339844 -82.25 214.3125 C-82.22035156 213.03826172 -82.19070312 211.76402344 -82.16015625 210.45117188 C-82.08935951 207.30071708 -82.03670953 204.1510066 -82 201 C-82.57886963 200.72961914 -83.15773926 200.45923828 -83.75415039 200.18066406 C-86.01319888 198.99306123 -87.90921589 197.65962551 -89.93359375 196.109375 C-90.66513672 195.56539062 -91.39667969 195.02140625 -92.15039062 194.4609375 C-93.68016641 193.31654503 -95.20103152 192.16014732 -96.71289062 190.9921875 C-98.76964799 189.47991911 -100.69889405 188.10701224 -103 187 C-105.83585479 187.47372538 -105.83585479 187.47372538 -108 189 C-109.6396875 189.0309375 -109.6396875 189.0309375 -111.3125 189.0625 C-116.17194097 190.29795109 -118.31002238 192.46082033 -121.48046875 196.26171875 C-123.7297205 200.3149976 -123.34803119 203.6711789 -123.04296875 208.1953125 C-122.97425828 212.68023199 -124.18036727 214.52968279 -127 218 C-130.36622331 220.79129903 -133.22859932 221.89173324 -137.5625 222.5 C-142.71790034 221.75012359 -146.69145315 219.00508303 -150 215 C-151.46843278 210.59470166 -151.85256699 206.5876224 -151 202 C-148.70370386 198.30909469 -145.93097972 194.96548986 -142 193 C-140.43779014 192.94859273 -138.87519635 192.90850344 -137.3125 192.875 C-131.95409616 192.43170679 -129.64193192 190.46092204 -126.1796875 186.49609375 C-125.59574219 185.75552734 -125.59574219 185.75552734 -125 185 C-125.495 184.071875 -125.495 184.071875 -126 183.125 C-127.415751 178.70077811 -127.61136354 174.60364114 -127 170 C-125.00342873 166.14455202 -123.60292362 164.40194908 -120 162 C-119.52075277 159.09177139 -119.52075277 159.09177139 -119.56762695 155.62255859 C-119.5574353 154.96877731 -119.54724365 154.31499603 -119.53674316 153.6414032 C-119.50651042 151.4769953 -119.49733215 149.31302917 -119.48828125 147.1484375 C-119.47144207 145.64912432 -119.45329286 144.14982532 -119.43388367 142.65054321 C-119.38629438 138.70174593 -119.35654315 134.75300612 -119.33044434 130.80401611 C-119.30068355 126.77547854 -119.25413797 122.74713925 -119.20898438 118.71875 C-119.12284968 110.81258066 -119.05710096 102.90643241 -119 95 C-124.28 95 -129.56 95 -135 95 C-135.66 96.65 -136.32 98.3 -137 100 C-142.14718596 103.80891761 -145.64167 104.80740698 -152 104 C-156.79678945 101.60160527 -159.63683712 98.81721665 -162 94 C-162.95196943 89.12449302 -162.59735002 85.29346221 -159.8125 81.125 C-156.35884034 76.96710247 -153.6427202 75.21543871 -148.1875 74.5 C-143.42557291 74.68106187 -139.44065993 76.73952425 -136 80 C-135.67 81.32 -135.34 82.64 -135 84 C-129.72 84 -124.44 84 -119 84 C-119.061875 81.463125 -119.12375 78.92625 -119.1875 76.3125 C-119.19418701 75.52270752 -119.20087402 74.73291504 -119.20776367 73.91918945 C-119.38867545 69.81938652 -119.70156922 68.35131725 -122.46875 65.09375 C-123.3040625 64.4028125 -124.139375 63.711875 -125 63 C-127.21099749 59.94671775 -127.48074467 56.84315298 -127.3828125 53.09375 C-126.50568283 48.29638772 -123.31179458 45.09907114 -119.6875 42.0625 C-116.06039077 40.62852658 -112.80805237 40.33415194 -109 41 C-104.20357942 43.39821029 -101.39821029 46.20357942 -99 51 C-98.19259302 57.35833 -99.19108239 60.85281404 -103 66 C-105.75 67.4375 -105.75 67.4375 -108 68 C-108 71.3 -108 74.6 -108 78 C-97.17787485 70.87976628 -86.54703757 63.52092492 -76 56 C-75.30261719 55.50306641 -74.60523437 55.00613281 -73.88671875 54.49414062 C-69.92112106 51.66743869 -65.95900487 48.83592742 -62 46 C-65.14074399 42.80533766 -67.99024208 40.08507412 -72 38 C-75.00384054 38.6954344 -75.00384054 38.6954344 -78 40 C-82.81698102 40.52548884 -86.26314294 40.03979435 -90.421875 37.3984375 C-94.15380111 34.09143367 -95.66361191 29.79406983 -96.5625 25 C-95.56278472 19.6681852 -92.77628491 15.57891992 -88.75 12 C-84.75440275 10.54705555 -81.19777246 10.33992624 -77 11 C-72.15778251 13.37542745 -69.51440535 16.25056767 -67 21 C-66.94585937 22.10859375 -66.89171875 23.2171875 -66.8359375 24.359375 C-65.67423381 29.41875744 -63.16431803 30.75597028 -58.9375 33.4375 C-58.27427734 33.88287109 -57.61105469 34.32824219 -56.92773438 34.78710938 C-55.29799486 35.87751064 -53.65062017 36.94147326 -52 38 C-49.06827374 36.60939922 -46.4378372 35.01563877 -43.76953125 33.171875 C-42.96580078 32.61886719 -42.16207031 32.06585938 -41.33398438 31.49609375 C-40.50189453 30.91988281 -39.66980469 30.34367187 -38.8125 29.75 C-37.17355443 28.61924453 -35.53423271 27.48903408 -33.89453125 26.359375 C-32.68676025 25.51910767 -32.68676025 25.51910767 -31.45458984 24.66186523 C-29.80249563 23.54332482 -28.12444286 22.46230003 -26.42431641 21.41821289 C-25.61269043 20.91539795 -24.80106445 20.41258301 -23.96484375 19.89453125 C-23.23257568 19.45729736 -22.50030762 19.02006348 -21.74584961 18.56958008 C-18.89690931 16.00828275 -18.87272213 12.99737296 -18.44921875 9.33984375 C-17.76364472 5.76889728 -15.79027573 4.17777618 -13 2 C-8.73648963 -0.84234025 -5.00398622 -0.62452246 0 0 Z " fill="#14BBD7" transform="translate(196,29)"/>
<path d="M0 0 C1.81038707 -0.11416855 3.62075544 -0.23065678 5.42919922 -0.37231445 C13.82258737 -0.88985065 18.2528271 0.56037373 24.76171875 6.1796875 C25.52427979 6.8598291 25.52427979 6.8598291 26.30224609 7.55371094 C29.59643145 10.3599741 33.16389947 12.80550937 36.6875 15.3125 C38.24366506 16.43335016 39.79965369 17.55444532 41.35546875 18.67578125 C46.41549649 22.30513698 51.50427509 25.89302076 56.59765625 29.4753418 C62.58378155 33.69126453 68.53553731 37.95394943 74.4453125 42.27636719 C77.97081567 44.84924098 81.50830215 47.35937936 85.17578125 49.7265625 C94.38443332 55.74681051 94.38443332 55.74681051 96.19921875 59.44140625 C96.65431314 61.65134461 96.84462473 63.75371755 97 66 C98.82128575 69.89092865 100.16831026 71.24183783 104 73 C104.37265103 81.91848553 104.6559214 90.83425115 104.82899475 99.75885391 C104.91212133 103.90455383 105.02455007 108.04488949 105.20703125 112.1875 C106.45421932 141.22744486 106.45421932 141.22744486 100.4375 147.91210938 C96.50413722 151.26198961 91.34659741 155 86 155 C86.0220752 154.25951416 86.04415039 153.51902832 86.06689453 152.75610352 C87.20175778 138.321959 87.20175778 138.321959 82.70703125 125.26953125 C80.22484156 123.12343495 77.94194495 121.44160642 75 120 C76.41118533 116.50016816 77.77428128 115.40706949 81.046875 113.64453125 C83.95466549 111.5440942 84.87624954 110.44677347 85.84570312 106.94677734 C86.22607459 103.15813204 86.31480662 99.49477072 86.25 95.6875 C86.24337341 95.02571747 86.23674683 94.36393494 86.22991943 93.68209839 C86.25256312 85.28374045 86.25256312 85.28374045 82.70825195 77.96386719 C80.23895274 75.66842941 77.98465419 74.39883542 74.93798828 73.00878906 C71.11569112 71.0191529 67.89941301 68.13819937 64.5625 65.4375 C63.01705756 64.22696938 61.46880279 63.02002185 59.91796875 61.81640625 C59.1192334 61.19523926 58.32049805 60.57407227 57.49755859 59.93408203 C45.98911364 51.02206826 34.37802836 42.24034367 22.70849609 33.54052734 C18.1011027 30.1011027 18.1011027 30.1011027 17 29 C16.99945523 29.91367718 16.99891047 30.82735435 16.99834919 31.76871872 C16.98339166 53.98515204 16.94098653 76.20138444 16.86790943 98.41770554 C16.83323419 109.16130603 16.80790059 119.90477787 16.80444336 130.6484375 C16.80140699 140.01099081 16.78096063 149.37331516 16.73947543 158.73578 C16.71811399 163.6946816 16.70556093 168.65325744 16.71384621 173.61220551 C16.72136649 178.27776858 16.7056464 182.94267052 16.67193985 187.60811234 C16.66368207 189.32217332 16.66398538 191.03629976 16.67340279 192.75035477 C16.68497766 195.08815911 16.66598269 197.42377955 16.63923645 199.76141357 C16.63647107 201.07035961 16.63370569 202.37930565 16.63085651 203.72791672 C16 207 16 207 13.65389538 209.39723587 C8.79725133 212.33030359 3.72756825 212.57624654 -1.77001953 211.68359375 C-9.01855746 209.46157643 -15.04826169 203.52124778 -20.79736328 198.78613281 C-23.76796169 196.37725474 -26.86100083 194.18155812 -30 192 C-35.49196198 188.11457428 -40.90576617 184.12790105 -46.3125 180.125 C-53.79109767 174.59261995 -61.34483205 169.18087949 -68.9609375 163.83984375 C-73.57061935 160.60683415 -78.14599207 157.32634889 -82.7121582 154.03222656 C-85.75008176 151.84516233 -85.75008176 151.84516233 -89 150 C-89.45703125 148.109375 -89.45703125 148.109375 -89.8125 145.75 C-90.72229199 141.17920503 -92.29918584 138.96065133 -96 136 C-96.66 135.67 -97.32 135.34 -98 135 C-98.39593522 126.08166072 -98.69690327 117.16639043 -98.88080692 108.24114609 C-98.96913664 104.09508356 -99.0885861 99.95507524 -99.2824707 95.8125 C-100.4968424 69.16964086 -100.4968424 69.16964086 -96.43969727 62.39434814 C-92.62258656 58.35655848 -88.17505002 56.02102967 -83.0874939 53.90893555 C-80.26158955 52.67848169 -77.93923797 50.97618334 -75.4921875 49.1171875 C-67.81173548 43.7178594 -60.11471037 38.34740123 -52.3125 33.125 C-51.68263184 32.70202637 -51.05276367 32.27905273 -50.40380859 31.84326172 C-46.12379872 29 -46.12379872 29 -45 29 C-44.82194608 36.2587399 -44.6996895 43.51691321 -44.61547852 50.77734375 C-44.58036029 53.24500574 -44.53265353 55.71252295 -44.47192383 58.1796875 C-44.38663126 61.73473889 -44.34722309 65.28785918 -44.31640625 68.84375 C-44.28027725 69.93989624 -44.24414825 71.03604248 -44.20692444 72.16540527 C-44.20402458 77.87209881 -44.55809009 81.15233292 -48.49975586 85.43945312 C-49.13529892 86.01280396 -49.77084198 86.58615479 -50.42564392 87.17687988 C-52.43212503 89.50040511 -52.55034492 91.09934758 -52.6875 94.125 C-52.35196834 98.66865792 -51.0380686 101.5279216 -48 105 C-43.53081267 107.97945822 -39.23927868 107.48398029 -34 107 C-30.37543775 105.64078916 -29.34247886 104.50781348 -27.1875 101.3125 C-25.76614864 97.34767777 -25.24452752 94.15924956 -26 90 C-27.69996852 86.78220244 -28.99219906 84.63016745 -32.09439087 82.69039917 C-34 81 -34 81 -34.60214233 78.41091919 C-34.6702562 76.85424026 -34.6702562 76.85424026 -34.73974609 75.26611328 C-34.79754242 74.087034 -34.85533875 72.90795471 -34.91488647 71.69314575 C-34.95070831 70.41511078 -34.98653015 69.13707581 -35.0234375 67.8203125 C-35.06046783 66.50143036 -35.09749817 65.18254822 -35.13565063 63.82369995 C-35.20478623 61.02446169 -35.25210583 58.22559376 -35.29052734 55.42578125 C-35.33473236 52.57212854 -35.4315388 49.72815378 -35.57763672 46.87792969 C-36.72508379 24.00831462 -36.72508379 24.00831462 -32.27301025 17.45977783 C-28.14542646 13.33738404 -23.45894624 10.60577791 -18.22195435 8.11196899 C-14.90916009 6.45409312 -12.09255669 4.33665605 -9.125 2.125 C-4.24202128 -1.31117021 -4.24202128 -1.31117021 0 0 Z " fill="#030505" transform="translate(186,56)"/>
<path d="M0 0 C0 50.49 0 100.98 0 153 C-4.82370351 149.38222237 -9.15326446 146.10155998 -13.5 142.0625 C-20.64978663 135.4800015 -27.99110785 129.14232787 -35.37426758 122.82470703 C-39.7640049 119.0663822 -44.13605023 115.28822181 -48.5 111.5 C-53.55422263 107.11535951 -58.61369423 102.73697437 -63.6875 98.375 C-64.26371094 97.87806641 -64.83992188 97.38113281 -65.43359375 96.86914062 C-68.59837504 94.10937664 -68.59837504 94.10937664 -72.13867188 91.88232422 C-75.08737974 88.90035443 -74.67005308 85.39647573 -74.70703125 81.421875 C-74.73055916 80.15467621 -74.73055916 80.15467621 -74.75456238 78.86187744 C-74.7791944 77.07323602 -74.79276989 75.28441331 -74.79614258 73.49560547 C-74.81237307 70.77130498 -74.89774028 68.05481189 -74.98632812 65.33203125 C-75.18402678 52.66234224 -75.18402678 52.66234224 -72.00927734 48.20507812 C-69.17508956 45.94773024 -66.71805039 44 -63 44 C-63.02731201 45.19488037 -63.05462402 46.38976074 -63.08276367 47.62084961 C-63.17013152 52.08860007 -63.18417938 56.5541892 -63.17700195 61.02270508 C-63.18394324 62.94996077 -63.21031152 64.87725443 -63.25708008 66.80395508 C-63.84725061 78.11295126 -63.84725061 78.11295126 -59.64697266 88.16650391 C-56.86870213 90.42894982 -54.08763513 92.19498198 -51 94 C-49.29996027 95.46206795 -47.62803252 96.95815439 -46 98.5 C-42.66805242 101.53856855 -39.26910617 104.43059915 -35.75 107.25 C-30.53262666 111.46260101 -25.63754604 115.96417985 -20.77050781 120.57128906 C-20.2081543 121.10206055 -19.64580078 121.63283203 -19.06640625 122.1796875 C-18.57084229 122.65132324 -18.07527832 123.12295898 -17.56469727 123.60888672 C-15.78779948 125.18865947 -13.90791075 126.58270712 -12 128 C-12.0031424 127.37677542 -12.00628481 126.75355083 -12.00952244 126.11144066 C-12.08293592 110.93752472 -12.10662195 95.76441254 -12.07515812 80.59039879 C-12.06113771 73.25221433 -12.063865 65.91475374 -12.10620117 58.57666016 C-12.14306505 52.17967554 -12.14831977 45.78357363 -12.11582941 39.3865515 C-12.09972685 35.99986568 -12.09930908 32.61483507 -12.13676643 29.22828293 C-12.17066853 25.44422529 -12.14869479 21.66432919 -12.11352539 17.88037109 C-12.13653214 16.76115265 -12.15953888 15.6419342 -12.1832428 14.48880005 C-12.03408677 7.06351797 -12.03408677 7.06351797 -8.99239922 3.93526077 C-3.27640165 0 -3.27640165 0 0 0 Z " fill="#15BBD8" transform="translate(180,85)"/>
<path d="M0 0 C6.06375 -0.185625 12.1275 -0.37125 18.375 -0.5625 C20.26782715 -0.64443604 22.1606543 -0.72637207 24.11083984 -0.81079102 C31.56849344 -1.00665034 37.97096082 -1.1049932 44.1484375 3.59375 C49.60738453 9.67327674 49.4794776 16.23348924 49.25 24.0625 C49.28570112 25.39918255 49.32474384 26.73578018 49.3671875 28.07226562 C49.2735189 37.42507551 49.2735189 37.42507551 45.96679688 41.5144043 C43.41134541 43.58666362 40.8185043 45.30689374 38 47 C36.63836778 47.97270623 35.28349145 48.95498199 33.9375 49.94921875 C32.62716022 50.86507763 31.3146165 51.77779055 30 52.6875 C25.30714482 55.9616222 20.63160147 59.25374928 16.0078125 62.625 C15.19183594 63.21966064 14.37585938 63.81432129 13.53515625 64.42700195 C11.95481431 65.58136234 10.3766078 66.73865312 8.80078125 67.89916992 C8.08535156 68.42099854 7.36992187 68.94282715 6.6328125 69.48046875 C5.68752686 70.17499146 5.68752686 70.17499146 4.72314453 70.88354492 C3 72 3 72 0 73 C0 48.91 0 24.82 0 0 Z " fill="#030303" transform="translate(213,181)"/>
<path d="M0 0 C3.47233531 1.73616765 6.11947606 3.48010945 9.1875 5.8125 C9.69869385 6.19994385 10.2098877 6.5873877 10.73657227 6.98657227 C12.49394461 8.32061891 14.24712366 9.66005203 16 11 C17.3697697 12.04429964 18.73956231 13.08856924 20.109375 14.1328125 C23.71609183 16.88496194 27.31794452 19.64340078 30.91796875 22.40429688 C32.91255107 23.9329777 34.9091514 25.45898374 36.90625 26.984375 C38.08339928 27.88533051 39.26048639 28.78636726 40.4375 29.6875 C41.98244141 30.86892578 41.98244141 30.86892578 43.55859375 32.07421875 C47.93306327 35.52480031 47.93306327 35.52480031 48.51171875 39.6328125 C49.16056601 51.28600512 49.16056601 51.28600512 46.05859375 55.8671875 C40.22593423 60.97895652 36.34731362 62.14719245 28.7109375 62.09765625 C27.62292847 62.09614563 27.62292847 62.09614563 26.51293945 62.09460449 C23.80027691 62.08936769 21.08763689 62.07540644 18.375 62.0625 C9.279375 62.0315625 9.279375 62.0315625 0 62 C0 41.54 0 21.08 0 0 Z " fill="#030303" transform="translate(213,107)"/>
<path d="M0 0 C3.4375 0.8125 3.4375 0.8125 5.4375 3.8125 C5.25 7.375 5.25 7.375 4.4375 10.8125 C1.18923326 12.97801116 0.20655843 13.36406953 -3.5625 12.8125 C-5.9375 11.25 -5.9375 11.25 -7.5625 8.8125 C-7.5 5.1875 -7.5 5.1875 -6.5625 1.8125 C-3.5625 -0.1875 -3.5625 -0.1875 0 0 Z " fill="#060D0D" transform="translate(296.5625,110.1875)"/>
<path d="M0 0 C3.3376027 0.66752054 4.50600369 1.76748653 6.5 4.5 C7 7 7 7 6.5 9.5 C4.50600369 12.23251347 3.3376027 13.33247946 0 14 C-3.3376027 13.33247946 -4.50600369 12.23251347 -6.5 9.5 C-7 7 -7 7 -6.5 4.5 C-4.50600369 1.76748653 -3.3376027 0.66752054 0 0 Z " fill="#050F0F" transform="translate(190.5,273.5)"/>
<path d="M0 0 C2.5 0.5625 2.5 0.5625 4.875 2.75 C6.5 5.5625 6.5 5.5625 6.4375 8.1875 C4.87931034 12.13491379 4.87931034 12.13491379 2.5 13.5625 C-1.0625 13.4375 -1.0625 13.4375 -4.5 12.5625 C-6.66551116 9.31423326 -7.05156953 8.33155843 -6.5 4.5625 C-4.51091327 1.83671449 -3.30749138 0.74418556 0 0 Z " fill="#050D0E" transform="translate(48.5,111.4375)"/>
<path d="M0 0 C2.4375 1.625 2.4375 1.625 4 4 C3.9375 7.125 3.9375 7.125 3 10 C-0.46923881 12.31282587 -1.92205575 12.42478586 -6 12 C-7.875 10.875 -7.875 10.875 -9 9 C-9.39365568 5.85075452 -9.52854531 3.88090884 -7.875 1.125 C-5.07553259 -0.55468045 -3.20195936 -0.45742277 0 0 Z " fill="#050A09" transform="translate(194,37)"/>
<path d="M0 0 C2 3 2 3 1.8125 6.5625 C1 10 1 10 -2 12 C-7.44444444 11.55555556 -7.44444444 11.55555556 -10 9 C-10.543379 3.02283105 -10.543379 3.02283105 -8.9375 0 C-5.77203476 -1.63378851 -3.34979714 -0.85267564 0 0 Z " fill="#060E0E" transform="translate(63,231)"/>
<path d="M0 0 C2 2 2 2 2.375 4.875 C2 8 2 8 0.375 10.4375 C-2 12 -2 12 -5.125 11.875 C-8 11 -8 11 -10 9 C-10.543379 3.02283105 -10.543379 3.02283105 -8.9375 0 C-5.80557344 -1.61647822 -3.32814714 -0.78665296 0 0 Z " fill="#050B0B" transform="translate(87,199)"/>
<path d="M0 0 C3.4375 0.8125 3.4375 0.8125 5.4375 3.8125 C4.99305556 9.25694444 4.99305556 9.25694444 2.4375 11.8125 C-1 12.1875 -1 12.1875 -4.5625 11.8125 C-6.5625 10.1875 -6.5625 10.1875 -7.5625 7.8125 C-7.4375 4.6875 -7.4375 4.6875 -6.5625 1.8125 C-3.5625 -0.1875 -3.5625 -0.1875 0 0 Z " fill="#050B0A" transform="translate(120.5625,264.1875)"/>
<path d="M0 0 C1.9375 1.1875 1.9375 1.1875 3 3 C3.4375 5.4375 3.4375 5.4375 3 8 C1.00600369 10.73251347 -0.1623973 11.83247946 -3.5 12.5 C-6.8376027 11.83247946 -8.00600369 10.73251347 -10 8 C-10.49089348 5.12476676 -10.41359492 3.70554428 -8.9375 1.1875 C-5.90624457 -0.67036623 -3.46577141 -0.37133265 0 0 Z " fill="#060E0E" transform="translate(328,81)"/>
<path d="M0 0 C2.875 0.875 2.875 0.875 4.875 2.875 C5.42916667 8.97083333 5.42916667 8.97083333 3.6875 11.8125 C1.16945572 13.28859492 -0.24976676 13.36589348 -3.125 12.875 C-5.85751347 10.88100369 -6.95747946 9.7126027 -7.625 6.375 C-6.70758718 1.78793592 -4.71400348 -0.18856014 0 0 Z " fill="#050E0E" transform="translate(267.125,261.125)"/>
<path d="M0 0 C1.875 1.125 1.875 1.125 3 3 C3.38976435 6.11811483 3.50422245 8.11019567 1.9375 10.875 C-1.09814371 12.63763183 -3.57798172 12.37331109 -7 12 C-9.31282587 8.53076119 -9.42478586 7.07794425 -9 3 C-6.79086995 -0.68188342 -4.01844539 -0.50230567 0 0 Z " fill="#070D0C" transform="translate(150,144)"/>
<path d="M0 0 C2.73251347 1.99399631 3.83247946 3.1623973 4.5 6.5 C3.8252147 9.87392649 2.83215614 11.06220896 0 13 C-3.6985004 12.85205998 -5.35805573 12.64194427 -8 10 C-8.55416667 3.90416667 -8.55416667 3.90416667 -6.8125 1.0625 C-4.29445572 -0.41359492 -2.87523324 -0.49089348 0 0 Z " fill="#050C0B" transform="translate(117,48)"/>
<path d="M0 0 C2.9375 0.75 2.9375 0.75 4.9375 2.75 C5.1875 6.25 5.1875 6.25 4.9375 9.75 C2.9375 11.75 2.9375 11.75 -0.5 12.0625 C-4.0625 11.75 -4.0625 11.75 -6.0625 10.6875 C-7.69628851 7.52203476 -6.91517564 5.09979714 -6.0625 1.75 C-3.0625 -0.25 -3.0625 -0.25 0 0 Z " fill="#060E0E" transform="translate(84.0625,78.25)"/>
<path d="M0 0 C1.875 1.125 1.875 1.125 3 3 C3.39365568 6.14924548 3.52854531 8.11909116 1.875 10.875 C-0.88090884 12.52854531 -2.85075452 12.39365568 -6 12 C-7.875 10.875 -7.875 10.875 -9 9 C-9.39365568 5.85075452 -9.52854531 3.88090884 -7.875 1.125 C-5.11909116 -0.52854531 -3.14924548 -0.39365568 0 0 Z " fill="#050705" transform="translate(268,42)"/>
<path d="M0 0 C1.875 1.125 1.875 1.125 3 3 C3.39310741 6.14485925 3.47555213 8.13281671 1.9375 10.9375 C-1.21566824 12.66665678 -3.62508255 11.8590699 -7 11 C-9.15502531 7.76746204 -9.46856135 6.74849077 -9 3 C-6.73529086 -0.64869805 -4.03159541 -0.50394943 0 0 Z " fill="#080C0A" transform="translate(300,221)"/>
<path d="M0 0 C3.5625 0.3125 3.5625 0.3125 5.5 1.5 C6.97609492 4.01804428 7.05339348 5.43726676 6.5625 8.3125 C4.53830677 11.08639443 3.41064923 12.16769403 0 12.75 C-2.4375 12.3125 -2.4375 12.3125 -4.25 11.25 C-6.084421 8.25699731 -5.74857576 5.73433337 -5.4375 2.3125 C-3.4375 0.3125 -3.4375 0.3125 0 0 Z " fill="#050C0C" transform="translate(332.4375,181.6875)"/>
<path d="M0 0 C0.33 0 0.66 0 1 0 C1 23.1 1 46.2 1 70 C1.99 70.33 2.98 70.66 4 71 C2.02 71.99 2.02 71.99 0 73 C0 48.91 0 24.82 0 0 Z " fill="#081418" transform="translate(213,181)"/>
<path d="M0 0 C0.99 0.33 1.98 0.66 3 1 C2.67 1.66 2.34 2.32 2 3 C1.88017743 4.87844908 1.82270839 6.76100831 1.79467773 8.64306641 C1.77473251 9.82413971 1.75478729 11.00521301 1.73423767 12.22207642 C1.71752518 13.50230682 1.70081268 14.78253723 1.68359375 16.1015625 C1.66281265 17.40829926 1.64203156 18.71503601 1.62062073 20.06137085 C1.56540706 23.536689 1.51599475 27.01206653 1.46777344 30.48748779 C1.41755323 34.033379 1.36186988 37.5791839 1.30664062 41.125 C1.19906772 48.0832585 1.09762083 55.04159496 1 62 C0.67 62 0.34 62 0 62 C0 41.54 0 21.08 0 0 Z " fill="#081215" transform="translate(213,107)"/>
<path d="M0 0 C0.66 0.33 1.32 0.66 2 1 C1.5155542 1.35811768 1.0311084 1.71623535 0.53198242 2.08520508 C-1.70023889 4.87521492 -1.43445628 7.09809763 -1.51171875 10.63671875 C-1.54716797 11.93544922 -1.58261719 13.23417969 -1.61914062 14.57226562 C-1.6422405 15.94400517 -1.6650229 17.3157501 -1.6875 18.6875 C-1.72067542 20.07099607 -1.75516531 21.45446129 -1.79101562 22.83789062 C-1.87363241 26.22517883 -1.94274058 29.61220357 -2 33 C-2.33 33 -2.66 33 -3 33 C-3.0740719 28.62178091 -3.12856375 24.24389218 -3.16479492 19.86523438 C-3.179896 18.37526091 -3.20037858 16.88533199 -3.22631836 15.39550781 C-3.26264584 13.2557477 -3.27971221 11.11657434 -3.29296875 8.9765625 C-3.3086792 7.68830566 -3.32438965 6.40004883 -3.34057617 5.07275391 C-3.22818604 4.05874512 -3.1157959 3.04473633 -3 2 C-2.01 1.34 -1.02 0.68 0 0 Z " fill="#08181C" transform="translate(273,59)"/>
<path d="M0 0 C0.5625 1.9375 0.5625 1.9375 1 4 C0.67 4.33 0.34 4.66 0 5 C-0.23192865 6.51469448 -0.41215238 8.03754562 -0.5625 9.5625 C-0.64628906 10.38878906 -0.73007813 11.21507813 -0.81640625 12.06640625 C-0.87699219 12.70449219 -0.93757813 13.34257813 -1 14 C-1.66 13.67 -2.32 13.34 -3 13 C-3.27429625 7.60550707 -3.36055646 4.48074195 0 0 Z " fill="#10AAC6" transform="translate(72,75)"/>
<path d="M0 0 C0.99 0.33 1.98 0.66 3 1 C2.67 1.66 2.34 2.32 2 3 C1.76827173 5.54615009 1.58105471 8.07396225 1.4375 10.625 C1.39431641 11.33140625 1.35113281 12.0378125 1.30664062 12.765625 C1.20055249 14.51018537 1.09977111 16.25506697 1 18 C0.67 18 0.34 18 0 18 C0 12.06 0 6.12 0 0 Z " fill="#0B1B1F" transform="translate(125,239)"/>
<path d="M0 0 C0 0.33 0 0.66 0 1 C-1.65 1 -3.3 1 -5 1 C-5.28875 1.5775 -5.5775 2.155 -5.875 2.75 C-6.91666667 4.83333333 -7.95833333 6.91666667 -9 9 C-9.36 3.6 -9.36 3.6 -7.875 1.125 C-5.21965017 -0.4682099 -3.03210482 -0.20214032 0 0 Z " fill="#0B1D1C" transform="translate(268,42)"/>
<path d="M0 0 C0.33 0 0.66 0 1 0 C1 2.97 1 5.94 1 9 C1.99 9.33 2.98 9.66 4 10 C2.02 10.99 2.02 10.99 0 12 C0 8.04 0 4.08 0 0 Z " fill="#0C1F23" transform="translate(213,242)"/>
<path d="M0 0 C-1.36983503 3.16115776 -1.9890638 3.9927092 -5 6 C-5 4.68 -5 3.36 -5 2 C-2 0 -2 0 0 0 Z " fill="#0A2528" transform="translate(291,212)"/>
</svg>
